<?xml version="1.0" encoding="utf-8"?>
<!-- Designed by Vexels.com - 2020 All Rights Reserved - https://vexels.com/terms-and-conditions/  -->
<svg version="1.1" id="Layer_1" xmlns="http://www.w3.org/2000/svg" xmlns:xlink="http://www.w3.org/1999/xlink" x="0px" y="0px"
	 viewBox="0 0 1200 1200" enable-background="new 0 0 1200 1200" xml:space="preserve">
<g>
	<path fill="#181918" d="M698.586,557.219c-3.721,4.559-7.727,9.207-12.054,13.949c-11.786,12.915-25.115,25.576-39.696,37.883
		c-111.67,94.253-297.756,167.436-442.83,169.834c-41.045,0.678-76.053-4.331-104.051-14.887c-0.005-0.002-0.007-0.003-0.011-0.004
		c-1.284-0.484-2.534-0.982-3.774-1.482l10.293,16.992c7.123,2.385,18.706,5.832,34.272,9.029l-2.541,12.362
		c-8.466-1.738-15.789-3.544-21.946-5.236l38.407,63.403c6.496,1.812,13.103,3.511,19.825,5.045l-2.807,12.303
		c-2.563-0.585-5.092-1.22-7.628-1.846l10.536,17.392c0,0,269.658,120.198,639.189-200.59
		C995.798,533.351,1095.588,470.219,1150,446.828c-8.306-23.715-16.515-47.459-25.864-70.8
		c-6.675-16.666-13.532-33.258-20.193-49.929c-3.178-7.956-6.19-15.982-9.571-23.854c-2.297-5.347-4.555-10.691-6.168-16.258
		c-41.017,7.182-139.376,54.286-371.725,255.987C710.489,547.172,704.525,552.25,698.586,557.219z M184.987,795.059
		c14.547,1.369,29.675,2.066,44.78,2.066l0,12.621c-4.95-0.001-9.953-0.075-14.866-0.219c-10.468-0.307-20.929-0.947-31.097-1.904
		L184.987,795.059z M255.111,892.396c-15.72-1.402-31.077-3.601-45.642-6.535l2.491-12.372c14.115,2.842,29.01,4.974,44.272,6.337
		L255.111,892.396z M274.606,795.183c14.68-1.257,29.674-3.148,44.567-5.62l2.067,12.449c-15.219,2.527-30.546,4.459-45.555,5.745
		L274.606,795.183z M301.089,894.258l-0.079-12.619c14.683-0.092,29.76-0.851,44.813-2.255l1.174,12.566
		C331.58,893.387,316.135,894.165,301.089,894.258z M363.215,780.557c14.325-3.477,28.901-7.552,43.321-12.115l3.808,12.032
		c-14.694,4.649-29.549,8.802-44.155,12.346L363.215,780.557z M392.511,885.839l-2.171-12.431
		c14.518-2.537,29.306-5.696,43.956-9.391l3.087,12.238C422.432,880.025,407.334,883.25,392.511,885.839z M448.999,753.49
		c13.765-5.339,27.727-11.238,41.493-17.534l5.25,11.478c-13.993,6.397-28.183,12.394-42.179,17.822L448.999,753.49z
		 M481.425,863.511l-3.917-11.998c14.03-4.58,28.271-9.738,42.324-15.333l4.669,11.725
		C510.2,853.597,495.706,858.848,481.425,863.511z M530.947,716.086c13.07-6.861,26.319-14.255,39.381-21.976l6.423,10.864
		c-13.243,7.828-26.681,15.327-39.938,22.286L530.947,716.086z M566.522,829.722l-5.343-11.433
		c13.365-6.248,26.923-13.043,40.297-20.197l5.954,11.129C593.857,816.48,580.094,823.378,566.522,829.722z M608.622,670.236
		c12.37-8.114,24.887-16.721,37.198-25.581l7.373,10.244c-12.46,8.966-25.127,17.677-37.648,25.89L608.622,670.236z
		 M647.199,786.642l-6.5-10.819c12.672-7.609,25.502-15.726,38.139-24.126l6.987,10.511
		C673.029,770.713,660.032,778.934,647.199,786.642z M723.32,736.111l-7.423-10.206c11.946-8.689,24.058-17.871,35.999-27.289
		l7.815,9.91C747.641,718.046,735.399,727.327,723.32,736.111z M1114.695,424.894l5.726,11.247
		c-11.954,6.086-25.11,13.503-39.104,22.044l-6.576-10.773C1089.012,438.704,1102.454,431.128,1114.695,424.894z M1086.671,324.625
		l4.014,11.966c-11.722,3.931-25.376,9.938-40.582,17.852l-5.828-11.196C1060.064,335.031,1074.328,328.766,1086.671,324.625z
		 M1043.418,482.629c-11.761,7.952-24.214,16.68-37.014,25.944l-7.398-10.224c12.908-9.342,25.472-18.149,37.344-26.175
		L1043.418,482.629z M1004.497,366.018l6.627,10.739c-11.874,7.329-24.594,15.607-37.81,24.603l-7.101-10.432
		C979.583,381.826,992.462,373.445,1004.497,366.018z M970.076,535.564c-11.504,8.753-23.541,18.099-35.772,27.775l-7.83-9.898
		c12.293-9.725,24.394-19.12,35.962-27.921L970.076,535.564z M928.945,417.204l7.424,10.206
		c-11.622,8.454-23.827,17.561-36.274,27.068l-7.661-10.03C904.959,434.882,917.243,425.716,928.945,417.204z M898.991,591.734
		c-11.34,9.256-23.092,18.978-34.93,28.895l-8.105-9.673c11.879-9.953,23.672-19.71,35.054-29L898.991,591.734z M856.52,472.427
		l7.845,9.888c-11.355,9.008-23.227,18.577-35.279,28.44l-7.993-9.767C833.196,491.084,845.116,481.475,856.52,472.427z
		 M821.261,640.358l8.211,9.584c-7.627,6.534-15.41,13.244-23.35,20.137c-3.708,3.22-7.409,6.395-11.096,9.526l-8.168-9.619
		c3.653-3.103,7.318-6.248,10.99-9.437C805.809,653.639,813.612,646.91,821.261,640.358z M786.073,530.025l8.118,9.665
		c-11.255,9.451-22.885,19.326-34.566,29.35l-8.219-9.578C763.12,549.41,774.785,539.506,786.073,530.025z M725.147,598.693
		c-11.728,9.893-23.649,19.578-35.43,28.789l-7.772-9.942c11.658-9.116,23.454-18.702,35.068-28.495L725.147,598.693z"/>
	<path fill="#181918" d="M203.631,756.172c157.004-2.595,367.367-92.103,466.123-200.316
		c99.227-108.73,44.01-190.433-119.394-182.237c-158.773,7.964-359.844,98.244-452.75,201.425
		C5.123,677.759,51.04,758.693,203.631,756.172z M470.312,648.501c-24.325,26.729-76.505,49.074-116.31,49.932
		c-39.52,0.852-51.974-19.825-28.048-46.206c23.954-26.411,75.542-48.81,115.46-50.009
		C481.622,601.009,494.667,621.74,470.312,648.501z M608.084,479.549c41.129-1.666,54.693,18.921,30.049,45.964
		c-24.615,27.011-77.775,49.951-118.494,51.259c-40.424,1.298-53.378-19.241-29.171-45.896
		C514.702,504.19,567.253,481.202,608.084,479.549z M401.727,461.415c23.882-26.394,75.476-49.328,115.472-51.209
		c40.284-1.895,53.451,18.262,29.172,45.005c-24.251,26.712-76.435,49.603-116.32,51.148
		C390.45,507.892,377.872,487.778,401.727,461.415z M345.317,566.736c10.361-11.44,32.629-21.208,49.782-21.814
		c17.206-0.608,22.73,8.228,12.295,19.732c-10.429,11.499-32.808,21.258-49.939,21.801
		C340.376,586.997,334.961,578.17,345.317,566.736z M187.676,541.873c23.404-25.954,73.513-48.276,112.143-49.84
		c38.905-1.576,51.344,18.475,27.558,44.766c-23.759,26.261-74.428,48.537-112.949,49.775
		C176.178,587.802,164.298,567.797,187.676,541.873z M138.806,657.057c23.439-25.958,73.519-47.956,112.08-49.114
		c38.836-1.167,51.19,19.22,27.368,45.515c-23.795,26.265-74.436,48.211-112.886,49.039
		C127.188,703.32,115.394,682.985,138.806,657.057z"/>
</g>
</svg>
